# xmcd
#
# Track frame offsets: 
#        150
#        16796
#        32056
#        47622
#        63794
#        86779
#        98117
#        114094
#        129200
#        148249
#        167730
#        187915
#        205306
#
# Disc length: 2952 seconds
#
# Revision: 0
# Processed by: cddbd v1.5.2PL0 Copyright (c) Steve Scherf et al.
# Submitted via: ExactAudioCopy v1.3
#
DISCID=a20b860d
DTITLE=Shaggy Dogs - All Inclusive
DYEAR=2018
DGENRE=Contemporary Blues, Modern Blues
TTITLE0=Blues Steady
TTITLE1=Facebook Fury
TTITLE2=El Dia De Los Muertos
TTITLE3=No Second Round
TTITLE4=Tired Of It All
TTITLE5=Watch Out
TTITLE6=Swingin' High And Low
TTITLE7=Chill Out
TTITLE8=Link Wray
TTITLE9=New York City
TTITLE10=Get Along
TTITLE11=Time To Go
TTITLE12=No Mo Do Yakamo
EXTD=
EXTT0=
EXTT1=
EXTT2=
EXTT3=
EXTT4=
EXTT5=
EXTT6=
EXTT7=
EXTT8=
EXTT9=
EXTT10=
EXTT11=
EXTT12=
PLAYORDER=
